<mxfile host="app.diagrams.net" agent="Mozilla/5.0 (Windows NT 10.0; Win64; x64) AppleWebKit/537.36 (KHTML, like Gecko) Chrome/131.0.0.0 Safari/537.36" version="26.0.5">
  <diagram name="PÃ¡gina-1" id="SKRLu6_MuARgDEXjkevO">
    <mxGraphModel dx="3361" dy="2305" grid="1" gridSize="10" guides="1" tooltips="1" connect="1" arrows="1" fold="1" page="1" pageScale="1" pageWidth="827" pageHeight="1169" math="0" shadow="0">
      <root>
        <mxCell id="0" />
        <mxCell id="1" parent="0" />
        <mxCell id="TCKFNK1VzcnC_DEqVwrI-56" value="" style="rounded=0;whiteSpace=wrap;html=1;fillColor=none;" parent="1" vertex="1">
          <mxGeometry x="-420" y="-430" width="916" height="370" as="geometry" />
        </mxCell>
        <mxCell id="TCKFNK1VzcnC_DEqVwrI-37" value="" style="rounded=0;whiteSpace=wrap;html=1;fillColor=none;" parent="1" vertex="1">
          <mxGeometry x="-400" y="50" width="930" height="520" as="geometry" />
        </mxCell>
        <mxCell id="TCKFNK1VzcnC_DEqVwrI-40" value="" style="rounded=0;whiteSpace=wrap;html=1;fillColor=none;" parent="1" vertex="1">
          <mxGeometry x="640" y="-130" width="1460" height="749" as="geometry" />
        </mxCell>
        <mxCell id="TCKFNK1VzcnC_DEqVwrI-38" value="Agent Layer" style="html=1;whiteSpace=wrap;" parent="1" vertex="1">
          <mxGeometry x="-400" y="10" width="150" height="40" as="geometry" />
        </mxCell>
        <mxCell id="TCKFNK1VzcnC_DEqVwrI-41" value="Scene Layer" style="html=1;whiteSpace=wrap;" parent="1" vertex="1">
          <mxGeometry x="640" y="-171" width="150" height="40" as="geometry" />
        </mxCell>
        <mxCell id="TCKFNK1VzcnC_DEqVwrI-44" value="SceneTransition" style="swimlane;fontStyle=0;childLayout=stackLayout;horizontal=1;startSize=26;fillColor=none;horizontalStack=0;resizeParent=1;resizeParentMax=0;resizeLast=0;collapsible=1;marginBottom=0;whiteSpace=wrap;html=1;" parent="1" vertex="1">
          <mxGeometry x="-110" y="-360" width="170" height="80" as="geometry" />
        </mxCell>
        <mxCell id="TCKFNK1VzcnC_DEqVwrI-57" value="Managers Layer" style="html=1;whiteSpace=wrap;" parent="1" vertex="1">
          <mxGeometry x="-420" y="-470" width="150" height="40" as="geometry" />
        </mxCell>
        <mxCell id="i8LpLfV0pfPGF9ZgEP0s-3" value="Player" style="swimlane;fontStyle=0;childLayout=stackLayout;horizontal=1;startSize=26;fillColor=none;horizontalStack=0;resizeParent=1;resizeParentMax=0;resizeLast=0;collapsible=1;marginBottom=0;whiteSpace=wrap;html=1;" parent="1" vertex="1">
          <mxGeometry x="330" y="209" width="140" height="52" as="geometry" />
        </mxCell>
        <mxCell id="rLtjcpFpSSiGD27gfL3j-1" value="&lt;font style=&quot;font-size: 72px;&quot;&gt;RED DEAD REDEMPTION 3 UML&lt;/font&gt;" style="text;html=1;align=center;verticalAlign=middle;resizable=0;points=[];autosize=1;strokeColor=none;fillColor=none;" parent="1" vertex="1">
          <mxGeometry x="-63" y="-745" width="1130" height="100" as="geometry" />
        </mxCell>
        <mxCell id="M0Ml1nKy3jbgERmkDkQd-5" value="Factory" style="swimlane;fontStyle=0;childLayout=stackLayout;horizontal=1;startSize=26;fillColor=none;horizontalStack=0;resizeParent=1;resizeParentMax=0;resizeLast=0;collapsible=1;marginBottom=0;whiteSpace=wrap;html=1;" parent="1" vertex="1">
          <mxGeometry x="900" y="-100" width="140" height="52" as="geometry" />
        </mxCell>
        <mxCell id="M0Ml1nKy3jbgERmkDkQd-6" value="DemonProyectileFactory" style="swimlane;fontStyle=0;childLayout=stackLayout;horizontal=1;startSize=26;fillColor=none;horizontalStack=0;resizeParent=1;resizeParentMax=0;resizeLast=0;collapsible=1;marginBottom=0;whiteSpace=wrap;html=1;" parent="1" vertex="1">
          <mxGeometry x="930" y="4" width="200" height="50" as="geometry" />
        </mxCell>
        <mxCell id="5O0t_2cQx6QEXN25Ojfc-10" value="+ GO: CreateDemonProyectile()" style="text;strokeColor=none;fillColor=none;align=left;verticalAlign=top;spacingLeft=4;spacingRight=4;overflow=hidden;rotatable=0;points=[[0,0.5],[1,0.5]];portConstraint=eastwest;whiteSpace=wrap;html=1;" vertex="1" parent="M0Ml1nKy3jbgERmkDkQd-6">
          <mxGeometry y="26" width="200" height="24" as="geometry" />
        </mxCell>
        <mxCell id="M0Ml1nKy3jbgERmkDkQd-7" value="FireballFactory" style="swimlane;fontStyle=0;childLayout=stackLayout;horizontal=1;startSize=26;fillColor=none;horizontalStack=0;resizeParent=1;resizeParentMax=0;resizeLast=0;collapsible=1;marginBottom=0;whiteSpace=wrap;html=1;" parent="1" vertex="1">
          <mxGeometry x="1590" y="-111" width="140" height="52" as="geometry">
            <mxRectangle x="1590" y="-111" width="120" height="30" as="alternateBounds" />
          </mxGeometry>
        </mxCell>
        <mxCell id="5O0t_2cQx6QEXN25Ojfc-6" value="+ GO: CreateFireball()" style="text;strokeColor=none;fillColor=none;align=left;verticalAlign=top;spacingLeft=4;spacingRight=4;overflow=hidden;rotatable=0;points=[[0,0.5],[1,0.5]];portConstraint=eastwest;whiteSpace=wrap;html=1;" vertex="1" parent="M0Ml1nKy3jbgERmkDkQd-7">
          <mxGeometry y="26" width="140" height="26" as="geometry" />
        </mxCell>
        <mxCell id="M0Ml1nKy3jbgERmkDkQd-8" value="MagicBulletFactory" style="swimlane;fontStyle=0;childLayout=stackLayout;horizontal=1;startSize=26;fillColor=none;horizontalStack=0;resizeParent=1;resizeParentMax=0;resizeLast=0;collapsible=1;marginBottom=0;whiteSpace=wrap;html=1;" parent="1" vertex="1">
          <mxGeometry x="670" y="10" width="160" height="52" as="geometry" />
        </mxCell>
        <mxCell id="M0Ml1nKy3jbgERmkDkQd-9" value="NormalBulletFactory" style="swimlane;fontStyle=0;childLayout=stackLayout;horizontal=1;startSize=30;fillColor=none;horizontalStack=0;resizeParent=1;resizeParentMax=0;resizeLast=0;collapsible=1;marginBottom=0;whiteSpace=wrap;html=1;" parent="1" vertex="1">
          <mxGeometry x="775" y="219" width="155" height="52" as="geometry" />
        </mxCell>
        <mxCell id="M0Ml1nKy3jbgERmkDkQd-12" value="Extends" style="endArrow=block;endSize=16;endFill=0;html=1;rounded=0;exitX=0.557;exitY=-0.019;exitDx=0;exitDy=0;exitPerimeter=0;entryX=0;entryY=1;entryDx=0;entryDy=0;" parent="1" source="M0Ml1nKy3jbgERmkDkQd-9" target="M0Ml1nKy3jbgERmkDkQd-5" edge="1">
          <mxGeometry width="160" relative="1" as="geometry">
            <mxPoint x="520" y="160" as="sourcePoint" />
            <mxPoint x="680" y="160" as="targetPoint" />
          </mxGeometry>
        </mxCell>
        <mxCell id="M0Ml1nKy3jbgERmkDkQd-13" value="Extends" style="endArrow=block;endSize=16;endFill=0;html=1;rounded=0;exitX=0.75;exitY=0;exitDx=0;exitDy=0;entryX=0;entryY=0.75;entryDx=0;entryDy=0;" parent="1" source="M0Ml1nKy3jbgERmkDkQd-8" target="M0Ml1nKy3jbgERmkDkQd-5" edge="1">
          <mxGeometry width="160" relative="1" as="geometry">
            <mxPoint x="738" y="227" as="sourcePoint" />
            <mxPoint x="940" y="60" as="targetPoint" />
          </mxGeometry>
        </mxCell>
        <mxCell id="M0Ml1nKy3jbgERmkDkQd-14" value="Extends" style="endArrow=block;endSize=16;endFill=0;html=1;rounded=0;exitX=0;exitY=0.5;exitDx=0;exitDy=0;entryX=1;entryY=0.5;entryDx=0;entryDy=0;" parent="1" source="M0Ml1nKy3jbgERmkDkQd-7" target="M0Ml1nKy3jbgERmkDkQd-5" edge="1">
          <mxGeometry width="160" relative="1" as="geometry">
            <mxPoint x="748" y="237" as="sourcePoint" />
            <mxPoint x="970" y="70" as="targetPoint" />
          </mxGeometry>
        </mxCell>
        <mxCell id="M0Ml1nKy3jbgERmkDkQd-15" value="Extends" style="endArrow=block;endSize=16;endFill=0;html=1;rounded=0;exitX=0.5;exitY=0;exitDx=0;exitDy=0;entryX=0.75;entryY=1;entryDx=0;entryDy=0;" parent="1" source="M0Ml1nKy3jbgERmkDkQd-6" target="M0Ml1nKy3jbgERmkDkQd-5" edge="1">
          <mxGeometry width="160" relative="1" as="geometry">
            <mxPoint x="758" y="247" as="sourcePoint" />
            <mxPoint x="980" y="92" as="targetPoint" />
          </mxGeometry>
        </mxCell>
        <mxCell id="M0Ml1nKy3jbgERmkDkQd-16" value="" style="endArrow=diamondThin;endFill=0;endSize=24;html=1;rounded=0;entryX=1;entryY=0.5;entryDx=0;entryDy=0;exitX=0;exitY=0.5;exitDx=0;exitDy=0;" parent="1" source="M0Ml1nKy3jbgERmkDkQd-9" target="i8LpLfV0pfPGF9ZgEP0s-3" edge="1">
          <mxGeometry width="160" relative="1" as="geometry">
            <mxPoint x="600" y="400" as="sourcePoint" />
            <mxPoint x="760" y="400" as="targetPoint" />
          </mxGeometry>
        </mxCell>
        <mxCell id="M0Ml1nKy3jbgERmkDkQd-17" value="" style="endArrow=diamondThin;endFill=0;endSize=24;html=1;rounded=0;entryX=1;entryY=0;entryDx=0;entryDy=0;exitX=0;exitY=1;exitDx=0;exitDy=0;" parent="1" source="M0Ml1nKy3jbgERmkDkQd-8" target="i8LpLfV0pfPGF9ZgEP0s-3" edge="1">
          <mxGeometry width="160" relative="1" as="geometry">
            <mxPoint x="660" y="254" as="sourcePoint" />
            <mxPoint x="480" y="245" as="targetPoint" />
            <Array as="points" />
          </mxGeometry>
        </mxCell>
        <mxCell id="M0Ml1nKy3jbgERmkDkQd-18" value="Gun (GO)" style="swimlane;fontStyle=0;childLayout=stackLayout;horizontal=1;startSize=26;fillColor=none;horizontalStack=0;resizeParent=1;resizeParentMax=0;resizeLast=0;collapsible=1;marginBottom=0;whiteSpace=wrap;html=1;" parent="1" vertex="1">
          <mxGeometry x="370" y="412" width="140" height="52" as="geometry" />
        </mxCell>
        <mxCell id="M0Ml1nKy3jbgERmkDkQd-20" value="" style="endArrow=diamondThin;endFill=0;endSize=24;html=1;rounded=0;entryX=0.5;entryY=1;entryDx=0;entryDy=0;exitX=0.5;exitY=0;exitDx=0;exitDy=0;" parent="1" source="M0Ml1nKy3jbgERmkDkQd-18" target="i8LpLfV0pfPGF9ZgEP0s-3" edge="1">
          <mxGeometry width="160" relative="1" as="geometry">
            <mxPoint x="660" y="254" as="sourcePoint" />
            <mxPoint x="480" y="245" as="targetPoint" />
          </mxGeometry>
        </mxCell>
        <mxCell id="M0Ml1nKy3jbgERmkDkQd-21" value="Enemy (GO)" style="swimlane;fontStyle=0;childLayout=stackLayout;horizontal=1;startSize=26;fillColor=none;horizontalStack=0;resizeParent=1;resizeParentMax=0;resizeLast=0;collapsible=1;marginBottom=0;whiteSpace=wrap;html=1;" parent="1" vertex="1">
          <mxGeometry x="1590" y="-10" width="140" height="52" as="geometry" />
        </mxCell>
        <mxCell id="M0Ml1nKy3jbgERmkDkQd-22" value="" style="endArrow=diamondThin;endFill=0;endSize=24;html=1;rounded=0;entryX=0.5;entryY=0;entryDx=0;entryDy=0;exitX=0.5;exitY=1;exitDx=0;exitDy=0;" parent="1" source="M0Ml1nKy3jbgERmkDkQd-7" target="M0Ml1nKy3jbgERmkDkQd-21" edge="1">
          <mxGeometry width="160" relative="1" as="geometry">
            <mxPoint x="880" y="280" as="sourcePoint" />
            <mxPoint x="480" y="271" as="targetPoint" />
            <Array as="points" />
          </mxGeometry>
        </mxCell>
        <mxCell id="M0Ml1nKy3jbgERmkDkQd-23" value="Boss" style="swimlane;fontStyle=0;childLayout=stackLayout;horizontal=1;startSize=26;fillColor=none;horizontalStack=0;resizeParent=1;resizeParentMax=0;resizeLast=0;collapsible=1;marginBottom=0;whiteSpace=wrap;html=1;" parent="1" vertex="1">
          <mxGeometry x="930" y="140" width="140" height="52" as="geometry" />
        </mxCell>
        <mxCell id="M0Ml1nKy3jbgERmkDkQd-24" value="" style="endArrow=diamondThin;endFill=0;endSize=24;html=1;rounded=0;entryX=0.5;entryY=0;entryDx=0;entryDy=0;exitX=0.5;exitY=1;exitDx=0;exitDy=0;" parent="1" source="M0Ml1nKy3jbgERmkDkQd-6" target="M0Ml1nKy3jbgERmkDkQd-23" edge="1">
          <mxGeometry width="160" relative="1" as="geometry">
            <mxPoint x="1040" y="281" as="sourcePoint" />
            <mxPoint x="1030" y="370" as="targetPoint" />
            <Array as="points" />
          </mxGeometry>
        </mxCell>
        <mxCell id="M0Ml1nKy3jbgERmkDkQd-25" value="Slime (GO)" style="swimlane;fontStyle=0;childLayout=stackLayout;horizontal=1;startSize=26;fillColor=none;horizontalStack=0;resizeParent=1;resizeParentMax=0;resizeLast=0;collapsible=1;marginBottom=0;whiteSpace=wrap;html=1;" parent="1" vertex="1">
          <mxGeometry x="920" y="382" width="140" height="52" as="geometry" />
        </mxCell>
        <mxCell id="M0Ml1nKy3jbgERmkDkQd-28" value="" style="endArrow=none;html=1;rounded=0;entryX=0.5;entryY=0;entryDx=0;entryDy=0;exitX=0.5;exitY=1;exitDx=0;exitDy=0;" parent="1" source="M0Ml1nKy3jbgERmkDkQd-23" target="M0Ml1nKy3jbgERmkDkQd-25" edge="1">
          <mxGeometry relative="1" as="geometry">
            <mxPoint x="930" y="360" as="sourcePoint" />
            <mxPoint x="1090" y="360" as="targetPoint" />
          </mxGeometry>
        </mxCell>
        <mxCell id="M0Ml1nKy3jbgERmkDkQd-31" value="HealthManager" style="swimlane;fontStyle=0;childLayout=stackLayout;horizontal=1;startSize=26;fillColor=none;horizontalStack=0;resizeParent=1;resizeParentMax=0;resizeLast=0;collapsible=1;marginBottom=0;whiteSpace=wrap;html=1;" parent="1" vertex="1">
          <mxGeometry x="120" y="-271" width="140" height="52" as="geometry" />
        </mxCell>
        <mxCell id="M0Ml1nKy3jbgERmkDkQd-32" value="CollisionManager" style="swimlane;fontStyle=0;childLayout=stackLayout;horizontal=1;startSize=26;fillColor=none;horizontalStack=0;resizeParent=1;resizeParentMax=0;resizeLast=0;collapsible=1;marginBottom=0;whiteSpace=wrap;html=1;" parent="1" vertex="1">
          <mxGeometry x="260" y="-192" width="140" height="52" as="geometry" />
        </mxCell>
        <mxCell id="M0Ml1nKy3jbgERmkDkQd-34" value="Following" style="swimlane;fontStyle=0;childLayout=stackLayout;horizontal=1;startSize=26;fillColor=none;horizontalStack=0;resizeParent=1;resizeParentMax=0;resizeLast=0;collapsible=1;marginBottom=0;whiteSpace=wrap;html=1;" parent="1" vertex="1">
          <mxGeometry x="690" y="500" width="140" height="52" as="geometry" />
        </mxCell>
        <mxCell id="M0Ml1nKy3jbgERmkDkQd-36" value="" style="endArrow=none;html=1;rounded=0;entryX=0;entryY=0.5;entryDx=0;entryDy=0;exitX=0.75;exitY=1;exitDx=0;exitDy=0;" parent="1" source="i8LpLfV0pfPGF9ZgEP0s-3" target="M0Ml1nKy3jbgERmkDkQd-34" edge="1">
          <mxGeometry relative="1" as="geometry">
            <mxPoint x="1200" y="422" as="sourcePoint" />
            <mxPoint x="1200" y="510" as="targetPoint" />
          </mxGeometry>
        </mxCell>
        <mxCell id="M0Ml1nKy3jbgERmkDkQd-37" value="Walk" style="swimlane;fontStyle=0;childLayout=stackLayout;horizontal=1;startSize=26;fillColor=none;horizontalStack=0;resizeParent=1;resizeParentMax=0;resizeLast=0;collapsible=1;marginBottom=0;whiteSpace=wrap;html=1;" parent="1" vertex="1">
          <mxGeometry x="204" y="440" width="140" height="52" as="geometry" />
        </mxCell>
        <mxCell id="M0Ml1nKy3jbgERmkDkQd-38" value="Shoot" style="swimlane;fontStyle=0;childLayout=stackLayout;horizontal=1;startSize=26;fillColor=none;horizontalStack=0;resizeParent=1;resizeParentMax=0;resizeLast=0;collapsible=1;marginBottom=0;whiteSpace=wrap;html=1;" parent="1" vertex="1">
          <mxGeometry x="-50" y="150" width="140" height="52" as="geometry" />
        </mxCell>
        <mxCell id="M0Ml1nKy3jbgERmkDkQd-39" value="Jump" style="swimlane;fontStyle=0;childLayout=stackLayout;horizontal=1;startSize=26;fillColor=none;horizontalStack=0;resizeParent=1;resizeParentMax=0;resizeLast=0;collapsible=1;marginBottom=0;whiteSpace=wrap;html=1;" parent="1" vertex="1">
          <mxGeometry x="-18" y="320" width="140" height="52" as="geometry" />
        </mxCell>
        <mxCell id="M0Ml1nKy3jbgERmkDkQd-40" value="" style="endArrow=diamondThin;endFill=1;endSize=24;html=1;rounded=0;entryX=0.25;entryY=1;entryDx=0;entryDy=0;exitX=0.5;exitY=0;exitDx=0;exitDy=0;" parent="1" source="M0Ml1nKy3jbgERmkDkQd-37" target="i8LpLfV0pfPGF9ZgEP0s-3" edge="1">
          <mxGeometry width="160" relative="1" as="geometry">
            <mxPoint x="300" y="370" as="sourcePoint" />
            <mxPoint x="460" y="370" as="targetPoint" />
          </mxGeometry>
        </mxCell>
        <mxCell id="M0Ml1nKy3jbgERmkDkQd-41" value="" style="endArrow=diamondThin;endFill=1;endSize=24;html=1;rounded=0;exitX=1;exitY=0.5;exitDx=0;exitDy=0;entryX=0;entryY=0;entryDx=0;entryDy=0;" parent="1" source="M0Ml1nKy3jbgERmkDkQd-38" target="i8LpLfV0pfPGF9ZgEP0s-3" edge="1">
          <mxGeometry width="160" relative="1" as="geometry">
            <mxPoint x="270" y="364" as="sourcePoint" />
            <mxPoint x="375" y="271" as="targetPoint" />
          </mxGeometry>
        </mxCell>
        <mxCell id="M0Ml1nKy3jbgERmkDkQd-42" value="" style="endArrow=diamondThin;endFill=1;endSize=24;html=1;rounded=0;entryX=0;entryY=0.75;entryDx=0;entryDy=0;exitX=1;exitY=0.25;exitDx=0;exitDy=0;" parent="1" source="M0Ml1nKy3jbgERmkDkQd-39" target="i8LpLfV0pfPGF9ZgEP0s-3" edge="1">
          <mxGeometry width="160" relative="1" as="geometry">
            <mxPoint x="270" y="364" as="sourcePoint" />
            <mxPoint x="375" y="271" as="targetPoint" />
          </mxGeometry>
        </mxCell>
        <mxCell id="M0Ml1nKy3jbgERmkDkQd-43" value="NormalBullet (GO)" style="swimlane;fontStyle=0;childLayout=stackLayout;horizontal=1;startSize=22;fillColor=none;horizontalStack=0;resizeParent=1;resizeParentMax=0;resizeLast=0;collapsible=1;marginBottom=0;whiteSpace=wrap;html=1;" parent="1" vertex="1">
          <mxGeometry x="740" y="340" width="140" height="52" as="geometry" />
        </mxCell>
        <mxCell id="M0Ml1nKy3jbgERmkDkQd-45" value="" style="endArrow=none;html=1;rounded=0;entryX=0;entryY=0.5;entryDx=0;entryDy=0;exitX=1;exitY=0.25;exitDx=0;exitDy=0;" parent="1" source="i8LpLfV0pfPGF9ZgEP0s-3" target="M0Ml1nKy3jbgERmkDkQd-23" edge="1">
          <mxGeometry relative="1" as="geometry">
            <mxPoint x="445" y="271" as="sourcePoint" />
            <mxPoint x="690" y="536" as="targetPoint" />
          </mxGeometry>
        </mxCell>
        <mxCell id="M0Ml1nKy3jbgERmkDkQd-46" value="Fireball (GO)" style="swimlane;fontStyle=0;childLayout=stackLayout;horizontal=1;startSize=26;fillColor=none;horizontalStack=0;resizeParent=1;resizeParentMax=0;resizeLast=0;collapsible=1;marginBottom=0;whiteSpace=wrap;html=1;" parent="1" vertex="1">
          <mxGeometry x="1860" y="-112" width="140" height="52" as="geometry" />
        </mxCell>
        <mxCell id="M0Ml1nKy3jbgERmkDkQd-47" value="FireballAnimation" style="swimlane;fontStyle=0;childLayout=stackLayout;horizontal=1;startSize=26;fillColor=none;horizontalStack=0;resizeParent=1;resizeParentMax=0;resizeLast=0;collapsible=1;marginBottom=0;whiteSpace=wrap;html=1;" parent="1" vertex="1">
          <mxGeometry x="1910" y="180" width="140" height="52" as="geometry" />
        </mxCell>
        <mxCell id="M0Ml1nKy3jbgERmkDkQd-48" value="" style="endArrow=none;html=1;rounded=0;entryX=0.5;entryY=0;entryDx=0;entryDy=0;exitX=0.5;exitY=1;exitDx=0;exitDy=0;" parent="1" source="M0Ml1nKy3jbgERmkDkQd-9" target="M0Ml1nKy3jbgERmkDkQd-43" edge="1">
          <mxGeometry relative="1" as="geometry">
            <mxPoint x="445" y="271" as="sourcePoint" />
            <mxPoint x="690" y="536" as="targetPoint" />
          </mxGeometry>
        </mxCell>
        <mxCell id="M0Ml1nKy3jbgERmkDkQd-49" value="" style="endArrow=none;html=1;rounded=0;entryX=1;entryY=0.5;entryDx=0;entryDy=0;exitX=0;exitY=0.5;exitDx=0;exitDy=0;" parent="1" source="M0Ml1nKy3jbgERmkDkQd-46" target="M0Ml1nKy3jbgERmkDkQd-7" edge="1">
          <mxGeometry relative="1" as="geometry">
            <mxPoint x="855" y="281" as="sourcePoint" />
            <mxPoint x="810" y="340" as="targetPoint" />
          </mxGeometry>
        </mxCell>
        <mxCell id="M0Ml1nKy3jbgERmkDkQd-51" value="MagicBullet" style="swimlane;fontStyle=0;childLayout=stackLayout;horizontal=1;startSize=30;fillColor=none;horizontalStack=0;resizeParent=1;resizeParentMax=0;resizeLast=0;collapsible=1;marginBottom=0;whiteSpace=wrap;html=1;" parent="1" vertex="1">
          <mxGeometry x="670" y="104" width="140" height="52" as="geometry" />
        </mxCell>
        <mxCell id="M0Ml1nKy3jbgERmkDkQd-52" value="" style="endArrow=none;html=1;rounded=0;entryX=0.5;entryY=1;entryDx=0;entryDy=0;exitX=0.5;exitY=0;exitDx=0;exitDy=0;" parent="1" source="M0Ml1nKy3jbgERmkDkQd-51" target="M0Ml1nKy3jbgERmkDkQd-8" edge="1">
          <mxGeometry relative="1" as="geometry">
            <mxPoint x="855" y="281" as="sourcePoint" />
            <mxPoint x="810" y="340" as="targetPoint" />
          </mxGeometry>
        </mxCell>
        <mxCell id="M0Ml1nKy3jbgERmkDkQd-53" value="GravityFix" style="swimlane;fontStyle=0;childLayout=stackLayout;horizontal=1;startSize=26;fillColor=none;horizontalStack=0;resizeParent=1;resizeParentMax=0;resizeLast=0;collapsible=1;marginBottom=0;whiteSpace=wrap;html=1;" parent="1" vertex="1">
          <mxGeometry x="42" y="412" width="140" height="52" as="geometry" />
        </mxCell>
        <mxCell id="M0Ml1nKy3jbgERmkDkQd-54" value="" style="endArrow=diamondThin;endFill=1;endSize=24;html=1;rounded=0;entryX=0;entryY=1;entryDx=0;entryDy=0;exitX=0.75;exitY=0;exitDx=0;exitDy=0;" parent="1" source="M0Ml1nKy3jbgERmkDkQd-53" target="i8LpLfV0pfPGF9ZgEP0s-3" edge="1">
          <mxGeometry width="160" relative="1" as="geometry">
            <mxPoint x="284" y="450" as="sourcePoint" />
            <mxPoint x="375" y="271" as="targetPoint" />
          </mxGeometry>
        </mxCell>
        <mxCell id="M0Ml1nKy3jbgERmkDkQd-55" value="BulletManager" style="swimlane;fontStyle=0;childLayout=stackLayout;horizontal=1;startSize=26;fillColor=none;horizontalStack=0;resizeParent=1;resizeParentMax=0;resizeLast=0;collapsible=1;marginBottom=0;whiteSpace=wrap;html=1;" parent="1" vertex="1">
          <mxGeometry x="-40" y="-192" width="140" height="52" as="geometry" />
        </mxCell>
        <mxCell id="M0Ml1nKy3jbgERmkDkQd-56" value="" style="endArrow=diamondThin;endFill=1;endSize=24;html=1;rounded=0;entryX=0.121;entryY=0.019;entryDx=0;entryDy=0;exitX=0.5;exitY=1;exitDx=0;exitDy=0;entryPerimeter=0;" parent="1" source="M0Ml1nKy3jbgERmkDkQd-55" target="i8LpLfV0pfPGF9ZgEP0s-3" edge="1">
          <mxGeometry width="160" relative="1" as="geometry">
            <mxPoint x="220" y="308" as="sourcePoint" />
            <mxPoint x="280" y="192" as="targetPoint" />
          </mxGeometry>
        </mxCell>
        <mxCell id="M0Ml1nKy3jbgERmkDkQd-57" value="GunStart" style="swimlane;fontStyle=0;childLayout=stackLayout;horizontal=1;startSize=26;fillColor=none;horizontalStack=0;resizeParent=1;resizeParentMax=0;resizeLast=0;collapsible=1;marginBottom=0;whiteSpace=wrap;html=1;" parent="1" vertex="1">
          <mxGeometry x="360" y="510" width="160" height="52" as="geometry" />
        </mxCell>
        <mxCell id="M0Ml1nKy3jbgERmkDkQd-59" value="" style="endArrow=diamondThin;endFill=1;endSize=24;html=1;rounded=0;entryX=0.5;entryY=1;entryDx=0;entryDy=0;exitX=0.5;exitY=0;exitDx=0;exitDy=0;" parent="1" source="M0Ml1nKy3jbgERmkDkQd-57" target="M0Ml1nKy3jbgERmkDkQd-18" edge="1">
          <mxGeometry width="160" relative="1" as="geometry">
            <mxPoint x="290" y="480" as="sourcePoint" />
            <mxPoint x="450" y="480" as="targetPoint" />
          </mxGeometry>
        </mxCell>
        <mxCell id="M0Ml1nKy3jbgERmkDkQd-61" value="DynamicCollision" style="swimlane;fontStyle=0;childLayout=stackLayout;horizontal=1;startSize=26;fillColor=none;horizontalStack=0;resizeParent=1;resizeParentMax=0;resizeLast=0;collapsible=1;marginBottom=0;whiteSpace=wrap;html=1;" parent="1" vertex="1">
          <mxGeometry x="1171" y="284" width="140" height="52" as="geometry" />
        </mxCell>
        <mxCell id="M0Ml1nKy3jbgERmkDkQd-62" value="BossCollision" style="swimlane;fontStyle=0;childLayout=stackLayout;horizontal=1;startSize=26;fillColor=none;horizontalStack=0;resizeParent=1;resizeParentMax=0;resizeLast=0;collapsible=1;marginBottom=0;whiteSpace=wrap;html=1;" parent="1" vertex="1">
          <mxGeometry x="1190" y="202" width="140" height="52" as="geometry" />
        </mxCell>
        <mxCell id="M0Ml1nKy3jbgERmkDkQd-63" value="BossBehavior" style="swimlane;fontStyle=0;childLayout=stackLayout;horizontal=1;startSize=26;fillColor=none;horizontalStack=0;resizeParent=1;resizeParentMax=0;resizeLast=0;collapsible=1;marginBottom=0;whiteSpace=wrap;html=1;" parent="1" vertex="1">
          <mxGeometry x="1000" y="270" width="140" height="52" as="geometry" />
        </mxCell>
        <mxCell id="M0Ml1nKy3jbgERmkDkQd-64" value="" style="endArrow=diamondThin;endFill=1;endSize=24;html=1;rounded=0;entryX=1;entryY=1;entryDx=0;entryDy=0;exitX=0.5;exitY=0;exitDx=0;exitDy=0;" parent="1" source="M0Ml1nKy3jbgERmkDkQd-61" target="M0Ml1nKy3jbgERmkDkQd-23" edge="1">
          <mxGeometry width="160" relative="1" as="geometry">
            <mxPoint x="1130" y="293" as="sourcePoint" />
            <mxPoint x="1221" y="114" as="targetPoint" />
          </mxGeometry>
        </mxCell>
        <mxCell id="M0Ml1nKy3jbgERmkDkQd-65" value="FireballBehavior" style="swimlane;fontStyle=0;childLayout=stackLayout;horizontal=1;startSize=26;fillColor=none;horizontalStack=0;resizeParent=1;resizeParentMax=0;resizeLast=0;collapsible=1;marginBottom=0;whiteSpace=wrap;html=1;" parent="1" vertex="1">
          <mxGeometry x="1928" y="20" width="140" height="52" as="geometry" />
        </mxCell>
        <mxCell id="5O0t_2cQx6QEXN25Ojfc-21" value="- void: Explode()" style="text;strokeColor=none;fillColor=none;align=left;verticalAlign=top;spacingLeft=4;spacingRight=4;overflow=hidden;rotatable=0;points=[[0,0.5],[1,0.5]];portConstraint=eastwest;whiteSpace=wrap;html=1;" vertex="1" parent="M0Ml1nKy3jbgERmkDkQd-65">
          <mxGeometry y="26" width="140" height="26" as="geometry" />
        </mxCell>
        <mxCell id="M0Ml1nKy3jbgERmkDkQd-66" value="" style="endArrow=diamondThin;endFill=1;endSize=24;html=1;rounded=0;entryX=0.5;entryY=1;entryDx=0;entryDy=0;exitX=0.5;exitY=0;exitDx=0;exitDy=0;" parent="1" source="M0Ml1nKy3jbgERmkDkQd-65" target="M0Ml1nKy3jbgERmkDkQd-46" edge="1">
          <mxGeometry width="160" relative="1" as="geometry">
            <mxPoint x="1135" y="212" as="sourcePoint" />
            <mxPoint x="1251" y="92" as="targetPoint" />
          </mxGeometry>
        </mxCell>
        <mxCell id="M0Ml1nKy3jbgERmkDkQd-67" value="" style="endArrow=diamondThin;endFill=1;endSize=24;html=1;rounded=0;entryX=0.75;entryY=1;entryDx=0;entryDy=0;exitX=0.5;exitY=0;exitDx=0;exitDy=0;" parent="1" source="M0Ml1nKy3jbgERmkDkQd-63" target="M0Ml1nKy3jbgERmkDkQd-23" edge="1">
          <mxGeometry width="160" relative="1" as="geometry">
            <mxPoint x="1135" y="212" as="sourcePoint" />
            <mxPoint x="1251" y="92" as="targetPoint" />
          </mxGeometry>
        </mxCell>
        <mxCell id="M0Ml1nKy3jbgERmkDkQd-68" value="" style="endArrow=diamondThin;endFill=1;endSize=24;html=1;rounded=0;exitX=0.5;exitY=0;exitDx=0;exitDy=0;entryX=1;entryY=0.75;entryDx=0;entryDy=0;" parent="1" source="M0Ml1nKy3jbgERmkDkQd-62" target="M0Ml1nKy3jbgERmkDkQd-23" edge="1">
          <mxGeometry width="160" relative="1" as="geometry">
            <mxPoint x="1290" y="212" as="sourcePoint" />
            <mxPoint x="1290" y="80" as="targetPoint" />
          </mxGeometry>
        </mxCell>
        <mxCell id="M0Ml1nKy3jbgERmkDkQd-69" value="MainCamera (GO)" style="swimlane;fontStyle=0;childLayout=stackLayout;horizontal=1;startSize=26;fillColor=none;horizontalStack=0;resizeParent=1;resizeParentMax=0;resizeLast=0;collapsible=1;marginBottom=0;whiteSpace=wrap;html=1;" parent="1" vertex="1">
          <mxGeometry x="990" y="500" width="140" height="52" as="geometry" />
        </mxCell>
        <mxCell id="M0Ml1nKy3jbgERmkDkQd-70" value="" style="endArrow=diamondThin;endFill=1;endSize=24;html=1;rounded=0;entryX=0;entryY=0.5;entryDx=0;entryDy=0;exitX=1;exitY=0.5;exitDx=0;exitDy=0;" parent="1" source="M0Ml1nKy3jbgERmkDkQd-34" target="M0Ml1nKy3jbgERmkDkQd-69" edge="1">
          <mxGeometry width="160" relative="1" as="geometry">
            <mxPoint x="284" y="450" as="sourcePoint" />
            <mxPoint x="375" y="271" as="targetPoint" />
          </mxGeometry>
        </mxCell>
        <mxCell id="M0Ml1nKy3jbgERmkDkQd-71" value="SlimeBehavior" style="swimlane;fontStyle=0;childLayout=stackLayout;horizontal=1;startSize=26;fillColor=none;horizontalStack=0;resizeParent=1;resizeParentMax=0;resizeLast=0;collapsible=1;marginBottom=0;whiteSpace=wrap;html=1;" parent="1" vertex="1">
          <mxGeometry x="1120" y="380" width="140" height="52" as="geometry" />
        </mxCell>
        <mxCell id="5O0t_2cQx6QEXN25Ojfc-20" value="- void: Transform()" style="text;strokeColor=none;fillColor=none;align=left;verticalAlign=top;spacingLeft=4;spacingRight=4;overflow=hidden;rotatable=0;points=[[0,0.5],[1,0.5]];portConstraint=eastwest;whiteSpace=wrap;html=1;" vertex="1" parent="M0Ml1nKy3jbgERmkDkQd-71">
          <mxGeometry y="26" width="140" height="26" as="geometry" />
        </mxCell>
        <mxCell id="M0Ml1nKy3jbgERmkDkQd-72" value="" style="endArrow=diamondThin;endFill=1;endSize=24;html=1;rounded=0;entryX=1;entryY=0.5;entryDx=0;entryDy=0;exitX=0;exitY=0.5;exitDx=0;exitDy=0;" parent="1" source="M0Ml1nKy3jbgERmkDkQd-71" target="M0Ml1nKy3jbgERmkDkQd-25" edge="1">
          <mxGeometry width="160" relative="1" as="geometry">
            <mxPoint x="840" y="536" as="sourcePoint" />
            <mxPoint x="990" y="528" as="targetPoint" />
          </mxGeometry>
        </mxCell>
        <mxCell id="M0Ml1nKy3jbgERmkDkQd-73" value="DemonProyectile (GO)" style="swimlane;fontStyle=0;childLayout=stackLayout;horizontal=1;startSize=26;fillColor=none;horizontalStack=0;resizeParent=1;resizeParentMax=0;resizeLast=0;collapsible=1;marginBottom=0;whiteSpace=wrap;html=1;" parent="1" vertex="1">
          <mxGeometry x="1200" y="4" width="180" height="52" as="geometry" />
        </mxCell>
        <mxCell id="M0Ml1nKy3jbgERmkDkQd-74" value="" style="endArrow=none;html=1;rounded=0;entryX=0;entryY=0.5;entryDx=0;entryDy=0;exitX=1;exitY=0.5;exitDx=0;exitDy=0;" parent="1" source="M0Ml1nKy3jbgERmkDkQd-6" target="M0Ml1nKy3jbgERmkDkQd-73" edge="1">
          <mxGeometry relative="1" as="geometry">
            <mxPoint x="1020" y="202" as="sourcePoint" />
            <mxPoint x="1000" y="392" as="targetPoint" />
          </mxGeometry>
        </mxCell>
        <mxCell id="M0Ml1nKy3jbgERmkDkQd-75" value="" style="endArrow=diamondThin;endFill=1;endSize=24;html=1;rounded=0;exitX=0.75;exitY=1;exitDx=0;exitDy=0;" parent="1" source="M0Ml1nKy3jbgERmkDkQd-31" edge="1">
          <mxGeometry width="160" relative="1" as="geometry">
            <mxPoint x="100" y="186" as="sourcePoint" />
            <mxPoint x="365" y="209" as="targetPoint" />
          </mxGeometry>
        </mxCell>
        <mxCell id="M0Ml1nKy3jbgERmkDkQd-76" value="" style="endArrow=diamondThin;endFill=1;endSize=24;html=1;rounded=0;exitX=0.5;exitY=1;exitDx=0;exitDy=0;entryX=0.5;entryY=0;entryDx=0;entryDy=0;" parent="1" source="M0Ml1nKy3jbgERmkDkQd-32" target="i8LpLfV0pfPGF9ZgEP0s-3" edge="1">
          <mxGeometry width="160" relative="1" as="geometry">
            <mxPoint x="430" y="-161" as="sourcePoint" />
            <mxPoint x="375" y="219" as="targetPoint" />
          </mxGeometry>
        </mxCell>
        <mxCell id="M0Ml1nKy3jbgERmkDkQd-79" value="DemonProyectileBehavior" style="swimlane;fontStyle=0;childLayout=stackLayout;horizontal=1;startSize=26;fillColor=none;horizontalStack=0;resizeParent=1;resizeParentMax=0;resizeLast=0;collapsible=1;marginBottom=0;whiteSpace=wrap;html=1;" parent="1" vertex="1">
          <mxGeometry x="1370" y="115" width="140" height="52" as="geometry" />
        </mxCell>
        <mxCell id="M0Ml1nKy3jbgERmkDkQd-80" value="" style="endArrow=diamondThin;endFill=1;endSize=24;html=1;rounded=0;entryX=0.5;entryY=1;entryDx=0;entryDy=0;exitX=0.5;exitY=0;exitDx=0;exitDy=0;" parent="1" source="M0Ml1nKy3jbgERmkDkQd-79" target="M0Ml1nKy3jbgERmkDkQd-73" edge="1">
          <mxGeometry width="160" relative="1" as="geometry">
            <mxPoint x="1490" y="281" as="sourcePoint" />
            <mxPoint x="1656" y="52" as="targetPoint" />
          </mxGeometry>
        </mxCell>
        <mxCell id="M0Ml1nKy3jbgERmkDkQd-81" value="UI Layer" style="html=1;whiteSpace=wrap;" parent="1" vertex="1">
          <mxGeometry x="640" y="-510" width="150" height="40" as="geometry" />
        </mxCell>
        <mxCell id="M0Ml1nKy3jbgERmkDkQd-82" value="" style="rounded=0;whiteSpace=wrap;html=1;fillColor=none;" parent="1" vertex="1">
          <mxGeometry x="634" y="-470" width="506" height="180" as="geometry" />
        </mxCell>
        <mxCell id="M0Ml1nKy3jbgERmkDkQd-83" value="MainMenuUI" style="swimlane;fontStyle=0;childLayout=stackLayout;horizontal=1;startSize=26;fillColor=none;horizontalStack=0;resizeParent=1;resizeParentMax=0;resizeLast=0;collapsible=1;marginBottom=0;whiteSpace=wrap;html=1;" parent="1" vertex="1">
          <mxGeometry x="950" y="-450" width="140" height="52" as="geometry" />
        </mxCell>
        <mxCell id="M0Ml1nKy3jbgERmkDkQd-84" value="" style="endArrow=none;html=1;rounded=0;entryX=1;entryY=0.5;entryDx=0;entryDy=0;exitX=0;exitY=0.5;exitDx=0;exitDy=0;" parent="1" source="M0Ml1nKy3jbgERmkDkQd-83" target="TCKFNK1VzcnC_DEqVwrI-44" edge="1">
          <mxGeometry relative="1" as="geometry">
            <mxPoint x="480" y="-470" as="sourcePoint" />
            <mxPoint x="480" y="-280" as="targetPoint" />
          </mxGeometry>
        </mxCell>
        <mxCell id="M0Ml1nKy3jbgERmkDkQd-85" value="HealthDisplay" style="swimlane;fontStyle=0;childLayout=stackLayout;horizontal=1;startSize=26;fillColor=none;horizontalStack=0;resizeParent=1;resizeParentMax=0;resizeLast=0;collapsible=1;marginBottom=0;whiteSpace=wrap;html=1;" parent="1" vertex="1">
          <mxGeometry x="680" y="-370" width="140" height="52" as="geometry" />
        </mxCell>
        <mxCell id="M0Ml1nKy3jbgERmkDkQd-86" value="" style="endArrow=none;html=1;rounded=0;entryX=1;entryY=0.5;entryDx=0;entryDy=0;exitX=0;exitY=0.5;exitDx=0;exitDy=0;" parent="1" source="M0Ml1nKy3jbgERmkDkQd-85" target="M0Ml1nKy3jbgERmkDkQd-31" edge="1">
          <mxGeometry relative="1" as="geometry">
            <mxPoint x="960" y="-414" as="sourcePoint" />
            <mxPoint x="40" y="-324" as="targetPoint" />
          </mxGeometry>
        </mxCell>
        <mxCell id="M0Ml1nKy3jbgERmkDkQd-87" value="SlimeAnimation" style="swimlane;fontStyle=0;childLayout=stackLayout;horizontal=1;startSize=26;fillColor=none;horizontalStack=0;resizeParent=1;resizeParentMax=0;resizeLast=0;collapsible=1;marginBottom=0;whiteSpace=wrap;html=1;" parent="1" vertex="1">
          <mxGeometry x="1320" y="382" width="140" height="52" as="geometry" />
        </mxCell>
        <mxCell id="M0Ml1nKy3jbgERmkDkQd-88" value="" style="endArrow=diamondThin;endFill=1;endSize=24;html=1;rounded=0;entryX=1;entryY=0.5;entryDx=0;entryDy=0;exitX=0;exitY=0.5;exitDx=0;exitDy=0;" parent="1" source="M0Ml1nKy3jbgERmkDkQd-87" target="M0Ml1nKy3jbgERmkDkQd-71" edge="1">
          <mxGeometry width="160" relative="1" as="geometry">
            <mxPoint x="1130" y="416" as="sourcePoint" />
            <mxPoint x="1070" y="418" as="targetPoint" />
          </mxGeometry>
        </mxCell>
        <mxCell id="M0Ml1nKy3jbgERmkDkQd-90" value="Collision2D" style="swimlane;fontStyle=0;childLayout=stackLayout;horizontal=1;startSize=26;fillColor=none;horizontalStack=0;resizeParent=1;resizeParentMax=0;resizeLast=0;collapsible=1;marginBottom=0;whiteSpace=wrap;html=1;" parent="1" vertex="1">
          <mxGeometry x="-50" y="232" width="140" height="52" as="geometry" />
        </mxCell>
        <mxCell id="M0Ml1nKy3jbgERmkDkQd-91" value="" style="endArrow=diamondThin;endFill=1;endSize=24;html=1;rounded=0;entryX=0;entryY=0.5;entryDx=0;entryDy=0;exitX=1;exitY=0.5;exitDx=0;exitDy=0;" parent="1" source="M0Ml1nKy3jbgERmkDkQd-90" target="i8LpLfV0pfPGF9ZgEP0s-3" edge="1">
          <mxGeometry width="160" relative="1" as="geometry">
            <mxPoint x="132" y="343" as="sourcePoint" />
            <mxPoint x="340" y="258" as="targetPoint" />
          </mxGeometry>
        </mxCell>
        <mxCell id="M0Ml1nKy3jbgERmkDkQd-92" value="EnemyBehavior" style="swimlane;fontStyle=0;childLayout=stackLayout;horizontal=1;startSize=26;fillColor=none;horizontalStack=0;resizeParent=1;resizeParentMax=0;resizeLast=0;collapsible=1;marginBottom=0;whiteSpace=wrap;html=1;" parent="1" vertex="1">
          <mxGeometry x="1540" y="130" width="140" height="52" as="geometry" />
        </mxCell>
        <mxCell id="5O0t_2cQx6QEXN25Ojfc-17" value="-void: Cast()" style="text;strokeColor=none;fillColor=none;align=left;verticalAlign=top;spacingLeft=4;spacingRight=4;overflow=hidden;rotatable=0;points=[[0,0.5],[1,0.5]];portConstraint=eastwest;whiteSpace=wrap;html=1;" vertex="1" parent="M0Ml1nKy3jbgERmkDkQd-92">
          <mxGeometry y="26" width="140" height="26" as="geometry" />
        </mxCell>
        <mxCell id="M0Ml1nKy3jbgERmkDkQd-94" value="" style="endArrow=diamondThin;endFill=1;endSize=24;html=1;rounded=0;entryX=0.5;entryY=1;entryDx=0;entryDy=0;exitX=0.5;exitY=0;exitDx=0;exitDy=0;" parent="1" source="M0Ml1nKy3jbgERmkDkQd-92" target="M0Ml1nKy3jbgERmkDkQd-21" edge="1">
          <mxGeometry width="160" relative="1" as="geometry">
            <mxPoint x="1940" y="38" as="sourcePoint" />
            <mxPoint x="1920" y="-50" as="targetPoint" />
          </mxGeometry>
        </mxCell>
        <mxCell id="M0Ml1nKy3jbgERmkDkQd-95" value="EnemyAnimation" style="swimlane;fontStyle=0;childLayout=stackLayout;horizontal=1;startSize=26;fillColor=none;horizontalStack=0;resizeParent=1;resizeParentMax=0;resizeLast=0;collapsible=1;marginBottom=0;whiteSpace=wrap;html=1;" parent="1" vertex="1">
          <mxGeometry x="1514" y="240" width="140" height="52" as="geometry" />
        </mxCell>
        <mxCell id="M0Ml1nKy3jbgERmkDkQd-96" value="" style="endArrow=diamondThin;endFill=1;endSize=24;html=1;rounded=0;entryX=0.5;entryY=1;entryDx=0;entryDy=0;exitX=0.5;exitY=0;exitDx=0;exitDy=0;" parent="1" source="M0Ml1nKy3jbgERmkDkQd-95" target="M0Ml1nKy3jbgERmkDkQd-92" edge="1">
          <mxGeometry width="160" relative="1" as="geometry">
            <mxPoint x="1670" y="150" as="sourcePoint" />
            <mxPoint x="1670" y="52" as="targetPoint" />
          </mxGeometry>
        </mxCell>
        <mxCell id="M0Ml1nKy3jbgERmkDkQd-97" value="" style="endArrow=diamondThin;endFill=1;endSize=24;html=1;rounded=0;entryX=0.5;entryY=1;entryDx=0;entryDy=0;" parent="1" source="M0Ml1nKy3jbgERmkDkQd-47" target="M0Ml1nKy3jbgERmkDkQd-65" edge="1">
          <mxGeometry width="160" relative="1" as="geometry">
            <mxPoint x="1940" y="38" as="sourcePoint" />
            <mxPoint x="1940" y="-50" as="targetPoint" />
          </mxGeometry>
        </mxCell>
        <mxCell id="M0Ml1nKy3jbgERmkDkQd-98" value="VerticalLimit" style="swimlane;fontStyle=0;childLayout=stackLayout;horizontal=1;startSize=26;fillColor=none;horizontalStack=0;resizeParent=1;resizeParentMax=0;resizeLast=0;collapsible=1;marginBottom=0;whiteSpace=wrap;html=1;" parent="1" vertex="1">
          <mxGeometry x="1565" y="480" width="140" height="52" as="geometry" />
        </mxCell>
        <mxCell id="M0Ml1nKy3jbgERmkDkQd-99" value="Body" style="swimlane;fontStyle=0;childLayout=stackLayout;horizontal=1;startSize=26;fillColor=none;horizontalStack=0;resizeParent=1;resizeParentMax=0;resizeLast=0;collapsible=1;marginBottom=0;whiteSpace=wrap;html=1;" parent="1" vertex="1">
          <mxGeometry x="1740" y="130" width="140" height="52" as="geometry" />
        </mxCell>
        <mxCell id="M0Ml1nKy3jbgERmkDkQd-100" value="Range" style="swimlane;fontStyle=0;childLayout=stackLayout;horizontal=1;startSize=26;fillColor=none;horizontalStack=0;resizeParent=1;resizeParentMax=0;resizeLast=0;collapsible=1;marginBottom=0;whiteSpace=wrap;html=1;" parent="1" vertex="1">
          <mxGeometry x="1760" y="30" width="140" height="52" as="geometry" />
        </mxCell>
        <mxCell id="M0Ml1nKy3jbgERmkDkQd-101" value="" style="endArrow=diamondThin;endFill=1;endSize=24;html=1;rounded=0;exitX=0;exitY=0.5;exitDx=0;exitDy=0;" parent="1" source="M0Ml1nKy3jbgERmkDkQd-100" edge="1">
          <mxGeometry width="160" relative="1" as="geometry">
            <mxPoint x="1620" y="140" as="sourcePoint" />
            <mxPoint x="1710" y="40" as="targetPoint" />
          </mxGeometry>
        </mxCell>
        <mxCell id="M0Ml1nKy3jbgERmkDkQd-102" value="" style="endArrow=diamondThin;endFill=1;endSize=24;html=1;rounded=0;entryX=0.75;entryY=1;entryDx=0;entryDy=0;exitX=0.25;exitY=0;exitDx=0;exitDy=0;" parent="1" source="M0Ml1nKy3jbgERmkDkQd-99" target="M0Ml1nKy3jbgERmkDkQd-21" edge="1">
          <mxGeometry width="160" relative="1" as="geometry">
            <mxPoint x="1620" y="140" as="sourcePoint" />
            <mxPoint x="1670" y="52" as="targetPoint" />
          </mxGeometry>
        </mxCell>
        <mxCell id="M0Ml1nKy3jbgERmkDkQd-103" value="BeforeBoss (GO)" style="swimlane;fontStyle=0;childLayout=stackLayout;horizontal=1;startSize=20;fillColor=none;horizontalStack=0;resizeParent=1;resizeParentMax=0;resizeLast=0;collapsible=1;marginBottom=0;whiteSpace=wrap;html=1;" parent="1" vertex="1">
          <mxGeometry x="1620" y="360" width="140" height="52" as="geometry" />
        </mxCell>
        <mxCell id="M0Ml1nKy3jbgERmkDkQd-104" value="BeforeBossSilence" style="swimlane;fontStyle=0;childLayout=stackLayout;horizontal=1;startSize=20;fillColor=none;horizontalStack=0;resizeParent=1;resizeParentMax=0;resizeLast=0;collapsible=1;marginBottom=0;whiteSpace=wrap;html=1;" parent="1" vertex="1">
          <mxGeometry x="1890" y="350" width="140" height="52" as="geometry" />
        </mxCell>
        <mxCell id="M0Ml1nKy3jbgERmkDkQd-105" value="" style="endArrow=diamondThin;endFill=1;endSize=24;html=1;rounded=0;entryX=1;entryY=0.5;entryDx=0;entryDy=0;exitX=0;exitY=0.5;exitDx=0;exitDy=0;" parent="1" source="M0Ml1nKy3jbgERmkDkQd-104" target="M0Ml1nKy3jbgERmkDkQd-103" edge="1">
          <mxGeometry width="160" relative="1" as="geometry">
            <mxPoint x="1993" y="190" as="sourcePoint" />
            <mxPoint x="2008" y="82" as="targetPoint" />
          </mxGeometry>
        </mxCell>
        <mxCell id="5O0t_2cQx6QEXN25Ojfc-13" value="" style="edgeStyle=orthogonalEdgeStyle;rounded=0;orthogonalLoop=1;jettySize=auto;html=1;" edge="1" parent="1" source="5O0t_2cQx6QEXN25Ojfc-8">
          <mxGeometry relative="1" as="geometry">
            <mxPoint x="930" y="43" as="targetPoint" />
          </mxGeometry>
        </mxCell>
        <mxCell id="5O0t_2cQx6QEXN25Ojfc-8" value="+ GO: CreateMagicBulletll()" style="text;strokeColor=none;fillColor=none;align=left;verticalAlign=top;spacingLeft=4;spacingRight=4;overflow=hidden;rotatable=0;points=[[0,0.5],[1,0.5]];portConstraint=eastwest;whiteSpace=wrap;html=1;" vertex="1" parent="1">
          <mxGeometry x="670" y="36" width="160" height="26" as="geometry" />
        </mxCell>
        <mxCell id="5O0t_2cQx6QEXN25Ojfc-12" value="+ GO: CreateNormalBulet" style="text;strokeColor=none;fillColor=none;align=left;verticalAlign=top;spacingLeft=4;spacingRight=4;overflow=hidden;rotatable=0;points=[[0,0.5],[1,0.5]];portConstraint=eastwest;whiteSpace=wrap;html=1;" vertex="1" parent="1">
          <mxGeometry x="775" y="245" width="155" height="26" as="geometry" />
        </mxCell>
        <mxCell id="5O0t_2cQx6QEXN25Ojfc-16" value="- void: ToWinScene()&lt;div&gt;&lt;br&gt;&lt;/div&gt;&lt;div&gt;-void: ToGameOver()&lt;/div&gt;" style="text;strokeColor=none;fillColor=none;align=left;verticalAlign=top;spacingLeft=4;spacingRight=4;overflow=hidden;rotatable=0;points=[[0,0.5],[1,0.5]];portConstraint=eastwest;whiteSpace=wrap;html=1;" vertex="1" parent="1">
          <mxGeometry x="-105" y="-334" width="170" height="54" as="geometry" />
        </mxCell>
        <mxCell id="5O0t_2cQx6QEXN25Ojfc-11" value="+ void: Cast()" style="text;strokeColor=none;fillColor=none;align=left;verticalAlign=top;spacingLeft=4;spacingRight=4;overflow=hidden;rotatable=0;points=[[0,0.5],[1,0.5]];portConstraint=eastwest;whiteSpace=wrap;html=1;" vertex="1" parent="1">
          <mxGeometry x="1000" y="296" width="140" height="26" as="geometry" />
        </mxCell>
        <mxCell id="5O0t_2cQx6QEXN25Ojfc-22" value="- void: Explode()" style="text;strokeColor=none;fillColor=none;align=left;verticalAlign=top;spacingLeft=4;spacingRight=4;overflow=hidden;rotatable=0;points=[[0,0.5],[1,0.5]];portConstraint=eastwest;whiteSpace=wrap;html=1;" vertex="1" parent="1">
          <mxGeometry x="1200" y="28" width="140" height="26" as="geometry" />
        </mxCell>
      </root>
    </mxGraphModel>
  </diagram>
</mxfile>
